<svg xmlns="http://www.w3.org/2000/svg" viewBox="0 0 512 512">
  <rect width="512" height="512" rx="96" fill="#0a0a0f" />
  <circle cx="256" cy="256" r="168" fill="#C8A95F" opacity="0.16" />
  <path d="M165 184c0-11 9-20 20-20h98c43 0 78 35 78 78 0 42-35 77-78 77h-58v57c0 11-9 20-20 20h-20c-11 0-20-9-20-20V184Zm60 39v57h58c20 0 38-17 38-38 0-20-18-38-38-38h-58Z" fill="#C8A95F" />
  <text x="256" y="448" text-anchor="middle" fill="#ffffff" font-size="42" font-family="Arial, sans-serif">SM</text>
</svg>
